<?xml version="1.0" encoding="UTF-8"?>
<svg viewBox="0 0 18 19" xmlns="http://www.w3.org/2000/svg">
<path d="m2.4579 17.86c0.06095 0.66 0.60948 1.14 1.2799 1.14h10.524c0.6704 0 1.2189-0.5 1.2799-1.14l1.1783-12.16h-15.44l1.1783 12.16z" fill="#fff"/>
<path d="m16.72 1.9h-5.14v-0.64c0-0.7-0.5688-1.26-1.2799-1.26h-2.5801c-0.71106 0-1.2799 0.56-1.2799 1.26v0.64h-5.1603c-0.71106 0-1.2799 0.56-1.2799 1.26 0 0.70001 0.56885 1.26 1.2799 1.26h15.44c0.7111 0 1.2799-0.56 1.2799-1.26 0-0.7-0.5688-1.26-1.2799-1.26z" fill="#fff"/>
</svg>
